<?xml version="1.0" encoding="UTF-8"?>
<svg width="800" height="800" viewBox="0 0 800 800" xmlns="http://www.w3.org/2000/svg">
  <defs>
    <linearGradient id="rainbow" x1="0%" y1="0%" x2="100%" y2="100%">
      <stop offset="0%" style="stop-color:#000080"/> <!-- Dark Blue -->
      <stop offset="20%" style="stop-color:#0099cc"/> <!-- Light Blue -->
      <stop offset="40%" style="stop-color:#00cc99"/> <!-- Turquoise -->
      <stop offset="60%" style="stop-color:#ffcc00"/> <!-- Yellow -->
      <stop offset="80%" style="stop-color:#ff6600"/> <!-- Orange -->
      <stop offset="100%" style="stop-color:#ff0000"/> <!-- Red -->
    </linearGradient>
  </defs>
  <path d="M400 700c-110 0-200-90-200-200 0-110 90-200 200-200s200 90 200 200c0 110-90 200-200 200zm0-50c82.5 0 150-67.5 150-150s-67.5-150-150-150-150 67.5-150 150 67.5 150 150 150zm0-50c55 0 100-45 100-100s-45-100-100-100-100 45-100 100 45 100 100 100zm0-50c27.5 0 50-22.5 50-50s-22.5-50-50-50-50 22.5-50 50 22.5 50 50 50z" fill="url(#rainbow)" stroke="none">
    <animate attributeName="d" dur="3s" repeatCount="indefinite"
      values="M400 700c-110 0-200-90-200-200 0-110 90-200 200-200s200 90 200 200c0 110-90 200-200 200zm0-50c82.5 0 150-67.5 150-150s-67.5-150-150-150-150 67.5-150 150 67.5 150 150 150zm0-50c55 0 100-45 100-100s-45-100-100-100-100 45-100 100 45 100 100 100zm0-50c27.5 0 50-22.5 50-50s-22.5-50-50-50-50 22.5-50 50 22.5 50 50 50z;
             M420 720c-120-10-210-100-200-210 10-120 100-210 210-200 120 10 210 100 200 210-10 120-100 210-210 200zm-10-50c82.5-10 150-77.5 140-160s-77.5-150-160-140-150 77.5-140 160 77.5 150 160 140zm-10-50c55-10 100-55 90-110s-55-100-110-90-100 55-90 110 55 100 110 90zm-10-50c27.5-10 50-32.5 40-60s-32.5-50-60-40-50 32.5-40 60 32.5 50 60 40z;
             M400 700c-110 0-200-90-200-200 0-110 90-200 200-200s200 90 200 200c0 110-90 200-200 200zm0-50c82.5 0 150-67.5 150-150s-67.5-150-150-150-150 67.5-150 150 67.5 150 150 150zm0-50c55 0 100-45 100-100s-45-100-100-100-100 45-100 100 45 100 100 100zm0-50c27.5 0 50-22.5 50-50s-22.5-50-50-50-50 22.5-50 50 22.5 50 50 50z"/>
  </path>
</svg> 